Genre:Action/Comedy/Romance/Thriller
Language:English
IMDb:http://www.imdb.com/title/tt1103153/
Source Video:ELEKTRI4KA.Thanks
Source Audio:IMAGiNE.Thanks
Encoder: Tony2
.............................................
General
Complete name : Killers CAM V2.XVID.FEEL-FREE
Format : AVI
Format/Info : Audio Video Interleave
File size : 889 MiB
Duration : 1h 33mn
Overall bit rate : 1 333 Kbps
..............................................
Video
Format : xvid
Codec ID : xvid
Duration : 1h 33mn
Bit rate : 1 196 Kbps
Width : 704 pixels
Height : 304 pixels
Display aspect ratio : 2.35:1
Frame rate : 25.000 fps
Resolution : 24 bits
Bits/(Pixel*Frame) : 0.223
Stream size : 797 MiB (90%)
..............................................
Audio
ID : 1
Format : MPEG Audio
Format version : Version 1
Format profile : Layer 3
Codec ID : 55
Codec ID/Hint : MP3
Duration : 1h 33mn
Bit rate mode : Constant
Bit rate : 128 Kbps
Channel(s) : 2 channels
Sampling rate : 44.1 KHz
Resolution : 16 bits
Stream size : 85.3 MiB (10%)
Alignment : Split accross interleaves
Interleave, duration : 40 ms (1.00 video frame)
Interleave, preload duration : 500 ms
.............................................
Plot:
A vacationing woman meets her ideal man, leading to a swift marriage. Back at home, however, their idyllic life is upset when they discover their neighbors could be assassins who have been contracted to kill the couple
...................................................
Screenshots
 
http://postimg.com/image/17000/16725.jpg 
http://postimg.com/image/17000/16724.jpg

..........................................................